<svg width="14" height="14" viewBox="0 0 14 14" fill="none" xmlns="http://www.w3.org/2000/svg">
<path d="M9.12269 0.386059C8.78362 -0.0498878 8.15534 -0.128422 7.71939 0.210648C7.28345 0.549718 7.20491 1.17799 7.54398 1.61394L9.12269 0.386059ZM13 7L13.7894 7.61394C14.0702 7.25283 14.0702 6.74717 13.7894 6.38606L13 7ZM7.54398 12.3861C7.20491 12.822 7.28344 13.4503 7.71939 13.7894C8.15534 14.1284 8.78362 14.0499 9.12269 13.6139L7.54398 12.3861ZM1 6C0.447715 6 5.96046e-08 6.44771 0 7C0 7.55228 0.447715 8 1 8L1 6ZM7.54398 1.61394L12.2106 7.61394L13.7894 6.38606L9.12269 0.386059L7.54398 1.61394ZM12.2106 6.38606L7.54398 12.3861L9.12269 13.6139L13.7894 7.61394L12.2106 6.38606ZM13 6L1 6L1 8L13 8V6Z" fill="white"/>
</svg>
